<?xml version="1.0" standalone="no"?>
<!DOCTYPE svg PUBLIC "-//W3C//DTD SVG 1.1//EN" "http://www.w3.org/Graphics/SVG/1.1/DTD/svg11.dtd" >
<svg xmlns="http://www.w3.org/2000/svg">
<metadata></metadata>
<defs>
<font id="quattrocento_sansbold" horiz-adv-x="539" >
<font-face units-per-em="1000" ascent="800" descent="-200" />
<missing-glyph horiz-adv-x="245" />
<glyph unicode="&#xfb01;" horiz-adv-x="525" d="M91 0v393h-57v57l57 9q0 181 42 237q36 49 124 49q87 0 161 -50l-45 -81q-4 2 -17.5 11.5t-19.5 13t-18.5 10t-21.5 9.5t-21.5 5.5t-25.5 2.5q-26 0 -37 -29t-11 -111v-66h88v-67h-88v-393h-110zM457 460v-460h-110v460h110z" />
<glyph unicode="&#xfb02;" horiz-adv-x="536" d="M461 740v-740h-110v644q-60 22 -102 22q-26 0 -37 -29t-11 -111v-66h88v-67h-88v-393h-110v393h-57v57l57 9q0 181 42 237q36 49 124 49q80 0 161 -29z" />
<glyph horiz-adv-x="0" />
<glyph horiz-adv-x="333" />
<glyph horiz-adv-x="0" />
<glyph horiz-adv-x="0" />
<glyph unicode="&#xd;" horiz-adv-x="245" />
<glyph unicode=" "  horiz-adv-x="245" />
<glyph unicode="&#x09;" horiz-adv-x="245" />
<glyph unicode="&#xa0;" horiz-adv-x="245" />
<glyph unicode="!" horiz-adv-x="270" d="M178 180h-87l-24 502h137zM62 59q0 28 21 48.5t50 20.5t51 -21t22 -49t-22.5 -49t-51.5 -21q-28 0 -49 21t-21 50z" />
<glyph unicode="&#x22;" horiz-adv-x="376" d="M147 516h-76l-21 216h121zM304 516h-76l-21 216h121z" />
<glyph unicode="#" horiz-adv-x="617" d="M522 654l-41 -193h101l-16 -82h-103l-19 -89h108l-17 -83h-108l-44 -207h-104l44 207h-86l-44 -207h-104l44 207h-97l17 83h97l19 89h-102l16 82h104l41 193h104l-41 -193h86l41 193h104zM273 379l-19 -89h86l19 89h-86z" />
<glyph unicode="$" horiz-adv-x="518" d="M305 750v-88q79 -7 141 -35l-27 -106q-46 30 -114 44v-174q38 -15 65.5 -30t55 -39.5t41.5 -60t14 -80.5q0 -85 -48.5 -131.5t-127.5 -57.5v-88h-80v85q-105 6 -189 54l29 103q70 -55 160 -62v209q-28 10 -47.5 18t-45 24.5t-41 36t-26.5 50.5t-11 70q0 157 171 171v87 h80zM371 169q0 56 -66 92v-170q66 18 66 78zM160 500q0 -49 65 -78v145q-65 -11 -65 -67z" />
<glyph unicode="%" horiz-adv-x="838" d="M694 691l-463 -715h-90l463 715h90zM193 665q72 0 114.5 -53.5t42.5 -130.5t-43.5 -132t-117.5 -55q-73 0 -113 52.5t-40 130.5q0 81 42.5 134.5t114.5 53.5zM190 359q38 0 56.5 33.5t18.5 86.5q0 55 -19 88t-55 33q-69 0 -69 -117q0 -124 68 -124zM646 366 q72 0 114.5 -53.5t42.5 -130.5t-43.5 -132t-117.5 -55q-73 0 -113 52.5t-40 130.5q0 81 42.5 134.5t114.5 53.5zM643 60q38 0 56.5 33.5t18.5 86.5q0 55 -19 88t-55 33q-69 0 -69 -117q0 -124 68 -124z" />
<glyph unicode="&#x26;" horiz-adv-x="705" d="M378 405l290 37v-77l-144 -11q32 -56 32 -119q0 -49 -20 -95l136 -140h-124l-63 65q-77 -77 -203 -77q-107 0 -168 55t-61 133q0 58 35 112.5t99 81.5q-61 70 -61 146q0 71 42 110t106 39q72 0 143 -44l-28 -96q-20 17 -51.5 32t-55.5 15q-25 0 -41 -17t-16 -47 q0 -29 15 -53.5t47 -56.5l172 -178q2 14 2 23q0 54 -34 103l-49 -3v62zM291 84q79 0 126 50l-170 173q-37 -10 -57.5 -43.5t-20.5 -73.5q0 -52 33.5 -79t88.5 -27z" />
<glyph unicode="'" horiz-adv-x="219" d="M147 516h-76l-21 216h121z" />
<glyph unicode="(" horiz-adv-x="327" d="M243 771l68 -25q-77 -90 -112 -189.5t-35 -230.5q0 -241 146 -418l-67 -25q-96 86 -149 201.5t-53 242.5q0 126 53 241t149 203z" />
<glyph unicode=")" horiz-adv-x="327" d="M16 746l68 25q96 -88 149 -203t53 -241q0 -127 -53 -242.5t-149 -201.5l-67 25q146 177 146 418q0 131 -35 230.5t-112 189.5z" />
<glyph unicode="*" horiz-adv-x="440" d="M271 702l-27 -124l92 87l52 -89l-120 -38l120 -38l-52 -89l-93 86l28 -123h-102l27 123l-92 -86l-52 89l119 38l-119 38l52 89l92 -87l-27 124h102z" />
<glyph unicode="+" horiz-adv-x="487" d="M289 427v-147h152v-82h-152v-157h-92v157h-151v82h151v147h92z" />
<glyph unicode="," horiz-adv-x="261" d="M87 -143l-36 25l45 113h-25v137h119v-152z" />
<glyph unicode="-" horiz-adv-x="468" d="M65 280h338v-82h-338v82z" />
<glyph unicode="." horiz-adv-x="255" d="M56 59q0 28 21 50.5t50 22.5q28 0 50.5 -22.5t22.5 -50.5q0 -29 -22.5 -50t-50.5 -21q-29 0 -50 21t-21 50z" />
<glyph unicode="/" horiz-adv-x="451" d="M422 702l-278 -759h-115l278 759h115z" />
<glyph unicode="0" horiz-adv-x="635" d="M318 665q123 0 194.5 -97.5t71.5 -237.5q0 -91 -30.5 -167.5t-94 -125.5t-148.5 -49q-123 0 -191 96t-68 238q0 147 72 245t194 98zM315 84q73 0 110 67.5t37 177.5t-37.5 175t-110.5 65q-71 0 -105 -64t-34 -176q0 -120 36.5 -182.5t103.5 -62.5z" />
<glyph unicode="1" horiz-adv-x="333" d="M245 660v-660h-115v486l-81 -36l-22 100z" />
<glyph unicode="2" horiz-adv-x="504" d="M73 527l-23 86q40 22 96 37t105 15q85 0 139.5 -45t54.5 -119q0 -39 -15.5 -79.5t-46.5 -84.5t-58.5 -77t-72.5 -83.5t-67 -76.5h267v-100h-405v100q31 43 87 103.5t96 103t71 94t31 92.5q0 79 -101 79q-79 0 -158 -45z" />
<glyph unicode="3" horiz-adv-x="529" d="M96 520l-26 92q85 53 186 53q84 0 137.5 -45.5t53.5 -117.5q0 -90 -95 -143q127 -43 127 -165q0 -89 -63.5 -147.5t-181.5 -58.5q-124 0 -204 68l28 91q78 -63 170 -63q63 0 95.5 30t32.5 86q0 110 -128 110h-27v87h31q43 0 67.5 28t24.5 74q0 38 -23.5 56t-61.5 18 t-78.5 -15.5t-64.5 -37.5z" />
<glyph unicode="4" horiz-adv-x="538" d="M494 280v-90h-69v-190h-115v190h-284v90l279 380h120v-380h69zM139 280h171v242z" />
<glyph unicode="5" horiz-adv-x="531" d="M102 287l-29 15l39 363h339v-105h-246l-15 -158q38 11 86 11q93 0 151 -54t58 -148q0 -97 -63.5 -160t-181.5 -63q-122 0 -203 67l29 95q30 -28 77 -46t92 -18q56 0 92 29t36 89q0 52 -28 80t-95 28q-73 0 -138 -25z" />
<glyph unicode="6" d="M163 332l3 -1q32 70 136 70q54 0 93.5 -20.5t60 -53t29.5 -65.5t9 -66q0 -38 -12 -73t-36 -66t-67 -50t-99 -19q-224 0 -224 312q0 73 12 134.5t39 115t77 84t118 30.5q112 0 164 -52l-25 -88q-60 45 -135 45q-40 0 -69.5 -18t-45 -49.5t-22.5 -66t-7 -74.5q0 -19 1 -29z M376 200q0 110 -90 110q-49 0 -75.5 -32t-26.5 -85q0 -52 26 -83t71 -31t70 32t25 89z" />
<glyph unicode="7" horiz-adv-x="457" d="M204 0h-127q-1 12 -1 39q0 109 78 258.5t174 262.5h-291v105h405v-105q-88 -96 -163.5 -257t-75.5 -263q0 -28 1 -40z" />
<glyph unicode="8" horiz-adv-x="544" d="M372 366v-4q57 -13 89 -59.5t32 -114.5q0 -88 -56 -144t-166 -56q-112 0 -166 56.5t-54 141.5q0 66 32 112t89 63v4q-38 14 -63 51t-25 89q0 72 50 116t138 44q87 0 137.5 -42.5t50.5 -114.5q0 -50 -24.5 -87.5t-63.5 -54.5zM378 185q0 52 -27.5 90t-79.5 38 q-53 0 -80 -38.5t-27 -89.5q0 -52 29 -81t78 -29t78 29t29 81zM348 492q0 39 -20 61.5t-57 22.5t-57 -21.5t-20 -61.5q0 -41 21 -65.5t56 -24.5t56 24t21 65z" />
<glyph unicode="9" d="M376 320l-3 1q-32 -70 -136 -70q-54 0 -93.5 20.5t-60 53t-29.5 65.5t-9 66q0 38 12 73t36 66t67 50t99 19q224 0 224 -312q0 -73 -12 -134.5t-39 -115t-77 -84t-118 -30.5q-112 0 -164 52l25 88q60 -45 135 -45q40 0 69.5 18t45 49.5t22.5 66t7 74.5q0 19 -1 29z M163 452q0 -110 90 -110q49 0 75.5 32t26.5 85q0 52 -26 83t-71 31t-70 -32t-25 -89z" />
<glyph unicode=":" horiz-adv-x="274" d="M65 59q0 28 21 50.5t50 22.5q28 0 50.5 -22.5t22.5 -50.5q0 -29 -22.5 -50t-50.5 -21q-29 0 -50 21t-21 50zM65 382q0 28 21 50.5t50 22.5q28 0 50.5 -22.5t22.5 -50.5q0 -29 -22.5 -50t-50.5 -21q-29 0 -50 21t-21 50z" />
<glyph unicode=";" horiz-adv-x="279" d="M69 382q0 28 21 50.5t50 22.5q28 0 50.5 -22.5t22.5 -50.5q0 -29 -22.5 -50t-50.5 -21q-29 0 -50 21t-21 50zM96 -143l-36 25l45 113h-25v137h119v-152z" />
<glyph unicode="&#x3c;" horiz-adv-x="397" d="M145 243v-5l198 -133l-18 -94l-286 197v65l285 194l18 -93z" />
<glyph unicode="=" horiz-adv-x="476" d="M69 204h338v-82h-338v82zM69 356h338v-82h-338v82z" />
<glyph unicode="&#x3e;" horiz-adv-x="397" d="M252 238v5l-197 131l18 93l285 -194v-65l-286 -197l-18 94z" />
<glyph unicode="?" horiz-adv-x="409" d="M62 538l-26 96q69 52 156 52q73 0 121 -45t48 -113q0 -39 -19.5 -80.5t-43 -73.5t-43.5 -83.5t-20 -109.5h-104q0 62 19 116t41.5 85t41.5 67.5t19 66.5q0 37 -22.5 54.5t-55.5 17.5q-31 0 -62.5 -14t-49.5 -36zM114 59q0 28 21 48.5t50 20.5t51 -21t22 -49t-22.5 -49 t-51.5 -21q-28 0 -49 21t-21 50z" />
<glyph unicode="@" horiz-adv-x="721" d="M399 248l12 72q-9 4 -20 4q-36 0 -59.5 -44t-23.5 -89q0 -41 22 -41q19 0 41 29t28 69zM571 57v-80q-26 -25 -91 -51.5t-138 -26.5q-122 0 -207 78t-85 203q0 60 21.5 122t62 118.5t110.5 92t157 35.5q132 0 202.5 -74t70.5 -171q0 -92 -59.5 -160.5t-140.5 -68.5 q-77 0 -77 73q-16 -33 -45.5 -53.5t-55.5 -20.5q-33 0 -59.5 32.5t-26.5 87.5q0 85 59.5 140.5t129.5 55.5q30 0 61.5 -10t45.5 -29l-31 -142q-4 -17 -4 -39q0 -24 20 -24q34 0 58 47t24 104q0 72 -43 123.5t-130 51.5q-114 0 -180.5 -89t-66.5 -202q0 -102 56.5 -152.5 t146.5 -50.5q69 0 126 25.5t89 54.5z" />
<glyph unicode="A" horiz-adv-x="628" d="M357 660l282 -660h-125l-75 192h-249l-68 -192h-120l256 660h99zM308 525l-86 -243h181z" />
<glyph unicode="B" horiz-adv-x="570" d="M468 493q0 -84 -68 -128q128 -43 128 -172q0 -88 -64 -146.5t-182 -58.5q-100 0 -194 12v660q75 5 161 5q106 0 162.5 -44t56.5 -128zM277 311q-28 0 -74 -2v-223q24 -2 76 -2q61 0 95 30t34 87q0 110 -131 110zM268 571q-35 0 -65 -5v-171q16 -1 50 -1q43 0 68.5 29.5 t25.5 77.5q0 31 -21 50.5t-58 19.5z" />
<glyph unicode="C" horiz-adv-x="628" d="M581 622l-29 -104q-71 49 -178 49q-104 0 -153 -62.5t-49 -173.5q0 -120 51.5 -182.5t148.5 -62.5q115 0 191 62l30 -99q-101 -61 -224 -61q-105 0 -178.5 47t-107 121t-33.5 167q0 149 86.5 245.5t243.5 96.5q115 0 201 -43z" />
<glyph unicode="D" horiz-adv-x="707" d="M88 0v660q60 5 204 5q177 0 263 -75q101 -88 101 -274q0 -56 -10 -101.5t-36 -88.5t-68 -72.5t-110.5 -47t-158.5 -17.5q-88 0 -185 11zM301 84q122 0 177 58t55 189q0 123 -54 180.5t-189 57.5q-52 0 -87 -1v-480q49 -4 98 -4z" />
<glyph unicode="E" horiz-adv-x="529" d="M403 400v-100h-200v-200h287v-100h-402v660h382v-100h-267v-160h200z" />
<glyph unicode="F" horiz-adv-x="487" d="M392 400v-100h-189v-300h-115v660h377v-100h-262v-160h189z" />
<glyph unicode="G" horiz-adv-x="657" d="M600 272v-217q-99 -67 -230 -67q-106 0 -180 47t-107 121t-33 167q0 149 86.5 245.5t245.5 96.5q115 0 209 -43l-32 -104q-85 49 -181 49q-109 0 -157.5 -61t-48.5 -176q0 -244 207 -244q40 0 106 20v166h115z" />
<glyph unicode="H" horiz-adv-x="722" d="M634 660v-660h-115v290h-316v-290h-115v660h115v-270h316v270h115z" />
<glyph unicode="I" horiz-adv-x="291" d="M203 660v-660h-115v660h115z" />
<glyph unicode="J" horiz-adv-x="290" d="M203 660v-559q0 -112 -49.5 -184.5t-144.5 -72.5l-22 87q33 0 55 15t31 43t12 52.5t3 60.5v558h115z" />
<glyph unicode="K" horiz-adv-x="609" d="M203 250v-250h-115v660h115v-288q57 54 102 105q86 97 135 183h126q-81 -111 -172 -214q-48 -54 -76 -83l295 -363h-133l-235 289z" />
<glyph unicode="L" horiz-adv-x="497" d="M203 660v-560h275v-100h-390v660h115z" />
<glyph unicode="M" horiz-adv-x="882" d="M219 660l225 -504l219 504h131v-660h-114v435l-190 -435h-92l-195 435v-435h-115v660h131z" />
<glyph unicode="N" horiz-adv-x="722" d="M229 660l290 -485v485h115v-660h-141l-290 484v-484h-115v660h141z" />
<glyph unicode="O" horiz-adv-x="742" d="M371 665q150 0 236 -97t86 -239q0 -67 -21 -127.5t-61 -108.5t-104 -76.5t-143 -28.5q-102 0 -175 47t-106.5 121t-33.5 166q0 148 86 245.5t236 97.5zM366 86q104 0 154.5 66t50.5 174q0 112 -50.5 176.5t-152.5 64.5t-149 -62.5t-47 -172.5q0 -121 50 -183.5t144 -62.5 z" />
<glyph unicode="P" horiz-adv-x="531" d="M268 248q-45 0 -65 1v-249h-115v660q67 5 159 5q115 0 182.5 -55t67.5 -157q0 -89 -58.5 -147t-170.5 -58zM263 569q-41 0 -60 -1v-223q19 -1 62 -1q109 0 109 117q0 108 -111 108z" />
<glyph unicode="Q" horiz-adv-x="745" d="M373 665q150 0 236 -97t86 -239q0 -88 -33.5 -162t-105.5 -124t-171 -54q43 -5 130.5 -39t141.5 -34q46 0 97 20l-26 -98q-32 -12 -70 -12q-57 0 -156.5 42.5t-147.5 42.5q-67 0 -119 -39l-20 72q51 40 119 45q-136 10 -209.5 104t-73.5 229q0 148 86 245.5t236 97.5z M370 86q103 0 153 67t50 176q0 110 -51 174t-153 64q-195 0 -195 -238q0 -119 50.5 -181t145.5 -62z" />
<glyph unicode="R" horiz-adv-x="606" d="M250 282q-30 0 -47 1v-283h-115v660q70 5 147 5q127 0 194.5 -49t67.5 -141q0 -134 -126 -176l242 -299h-133zM245 569q-26 0 -42 -1v-190h62q54 0 82 27t28 77q0 46 -28.5 66.5t-101.5 20.5z" />
<glyph unicode="S" horiz-adv-x="542" d="M172 501q0 -16 6.5 -29.5t16 -22.5t29 -19t34 -15.5t43.5 -15.5q44 -15 73 -30t61.5 -39.5t49 -62t16.5 -86.5q0 -69 -34.5 -113.5t-85.5 -62t-117 -17.5q-123 0 -222 55l30 108q88 -67 191 -67q122 0 122 83q0 27 -13 48.5t-37.5 36.5t-41.5 22.5t-43 15.5 q-33 11 -52.5 18.5t-49 25t-46 36.5t-29 51t-12.5 71q0 91 57.5 132t154.5 41q110 0 193 -38l-27 -106q-34 23 -81.5 36t-88.5 13q-97 0 -97 -69z" />
<glyph unicode="T" d="M518 660v-100h-191v-560h-115v560h-191v100h497z" />
<glyph unicode="U" horiz-adv-x="705" d="M196 660v-404q0 -170 159 -170q160 0 160 170v404h110v-428q0 -106 -69.5 -174.5t-206.5 -68.5q-136 0 -202 68t-66 175v428h115z" />
<glyph unicode="V" horiz-adv-x="634" d="M278 0l-290 660h125l210 -520l190 520h120l-264 -660h-91z" />
<glyph unicode="W" horiz-adv-x="1042" d="M1041 660l-245 -660h-95l-180 502l-179 -502h-95l-246 660h125l169 -512l170 512h113l169 -512l169 512h125z" />
<glyph unicode="X" horiz-adv-x="638" d="M497 0l-181 267l-179 -267h-126l244 340l-229 320h129l167 -258l165 258h126l-230 -321l243 -339h-129z" />
<glyph unicode="Y" horiz-adv-x="564" d="M225 267l-237 393h129l169 -299l162 299h127l-235 -389v-271h-115v267z" />
<glyph unicode="Z" horiz-adv-x="554" d="M511 100v-100h-468v100l328 460h-313v100h438v-100l-328 -460h343z" />
<glyph unicode="[" horiz-adv-x="281" d="M237 -23v-72h-160v844h160v-72h-55v-700h55z" />
<glyph unicode="\" horiz-adv-x="450" d="M307 -57l-278 759h113l278 -759h-113z" />
<glyph unicode="]" horiz-adv-x="281" d="M44 677v72h160v-844h-160v72h55v700h-55z" />
<glyph unicode="^" horiz-adv-x="348" d="M170 673h8l110 -99l3 -7l-16 -29l-7 -3l-94 41l-94 -41l-7 3l-16 29l3 7z" />
<glyph unicode="_" horiz-adv-x="471" d="M19 0h433v-82h-433v82z" />
<glyph unicode="`" horiz-adv-x="219" d="M208 536l-8 -3l-187 69q-13 4 -13 29q0 19 8.5 35.5t21.5 16.5q4 0 10 -3l180 -101l3 -7z" />
<glyph unicode="a" horiz-adv-x="501" d="M437 0h-88l-8 63h-4q-27 -34 -73.5 -54.5t-94.5 -20.5q-62 0 -98.5 36.5t-36.5 96.5q0 82 67.5 128.5t182.5 46.5h43v15q0 39 -25 57q-26 18 -81 18q-73 0 -132 -33l-21 83q68 39 162 39q100 0 152 -41q55 -43 55 -121v-313zM212 77q32 0 64 16t51 41v91h-19 q-82 0 -119.5 -21t-37.5 -67q0 -60 61 -60z" />
<glyph unicode="b" horiz-adv-x="574" d="M322 -12q-85 0 -153 75h-4l-8 -63h-88v740h109v-326q50 61 147 61q100 0 153.5 -69.5t53.5 -170.5q0 -107 -58.5 -177t-151.5 -70zM308 71q55 0 85 48t30 114q0 67 -32 112t-92 45q-69 0 -121 -64v-192q22 -28 59 -45.5t71 -17.5z" />
<glyph unicode="c" horiz-adv-x="489" d="M448 435l-24 -89q-23 17 -64 30t-77 13q-64 0 -93.5 -42t-29.5 -107q0 -71 33.5 -117t95.5 -46q37 0 77.5 15t66.5 40l20 -94q-77 -50 -180 -50q-111 0 -171 70.5t-60 175.5q0 104 60 172.5t178 68.5q106 0 168 -40z" />
<glyph unicode="d" horiz-adv-x="574" d="M252 -12q-93 0 -151.5 70t-58.5 177q0 101 53.5 170.5t153.5 69.5q97 0 147 -61v326h109v-740h-88l-8 63h-4q-68 -75 -153 -75zM266 71q34 0 71 17.5t59 45.5v192q-52 64 -121 64q-60 0 -92 -45t-32 -112q0 -66 30 -114t85 -48z" />
<glyph unicode="e" horiz-adv-x="505" d="M278 475q88 0 136 -44.5t48 -125.5q0 -59 -19 -85h-291q4 -64 39 -104.5t97 -40.5q36 0 77.5 14t71.5 35l18 -82q-86 -54 -184 -54q-107 0 -168.5 70t-61.5 172q0 104 63.5 174.5t173.5 70.5zM275 389q-41 0 -71 -24.5t-43 -66.5h191q2 8 2 17q0 32 -22.5 53t-56.5 21z " />
<glyph unicode="f" horiz-adv-x="310" d="M91 0v393h-57v57l57 9q0 181 42 237q36 49 124 49q60 0 95 -21l-25 -85q-44 27 -78 27q-26 0 -37 -29t-11 -111v-66h88v-67h-88v-393h-110z" />
<glyph unicode="g" horiz-adv-x="498" d="M130 141v4q-43 18 -64 57t-21 89q0 80 51.5 132t136.5 52q58 0 96 -20q74 1 143 21l9 -7l-11 -76l-5 -5l-71 8l-1 -3q34 -43 34 -101q0 -72 -50.5 -120t-138.5 -48q-8 0 -17.5 0.5t-12.5 0.5q-35 -12 -35 -35q0 -24 45 -30l97 -12q71 -9 114 -43t43 -94 q0 -68 -57.5 -113.5t-169.5 -45.5q-102 0 -160.5 38t-58.5 96q0 40 26 75.5t65 48.5v4q-41 17 -41 60q0 47 54 67zM237 201q39 0 61 26t22 65q0 40 -22.5 72t-64.5 32q-40 0 -62 -29.5t-22 -68.5t23 -68t65 -29zM206 -22q-34 -6 -58 -28.5t-24 -51.5q0 -64 123 -64 q129 0 129 70q0 35 -37 50t-133 24z" />
<glyph unicode="h" horiz-adv-x="552" d="M179 740v-348q53 83 154 83q68 0 111 -38.5t43 -123.5v-313h-110v304q0 40 -18 61t-49 21q-41 0 -79.5 -25t-51.5 -66v-295h-110v740h110z" />
<glyph unicode="i" horiz-adv-x="248" d="M179 460v-460h-110v460h110zM53 608q0 28 21 50.5t50 22.5q28 0 50.5 -22.5t22.5 -50.5q0 -29 -22.5 -50t-50.5 -21q-29 0 -50 21t-21 50z" />
<glyph unicode="j" horiz-adv-x="248" d="M179 460v-463q0 -108 -46.5 -181.5t-128.5 -73.5q-18 0 -24 3l-18 67q6 -3 21 -3q28 0 47 17.5t26.5 49.5t10 59t2.5 63v462h110zM53 608q0 28 21 50.5t50 22.5q28 0 50.5 -22.5t22.5 -51.5q0 -28 -22.5 -49t-51.5 -21q-28 0 -49 21t-21 50z" />
<glyph unicode="k" horiz-adv-x="493" d="M455 460l-164 -162l196 -298h-120l-149 226l-39 -39v-187h-110v740h110v-427l153 147h123z" />
<glyph unicode="l" horiz-adv-x="260" d="M185 740v-740h-110v740h110z" />
<glyph unicode="m" horiz-adv-x="835" d="M477 0h-110v304q0 82 -65 82q-35 0 -73 -25t-50 -66v-295h-110v460h86l5 -68h4q19 40 62 61.5t94 21.5q109 0 143 -82q20 40 62 61t93 21q70 0 113.5 -38.5t43.5 -123.5v-313h-110v304q0 82 -65 82q-35 0 -73 -25t-50 -66v-295z" />
<glyph unicode="n" horiz-adv-x="547" d="M487 0h-110v304q0 82 -70 82q-37 0 -76 -25t-52 -66v-295h-110v460h86l5 -68h4q20 40 64 61.5t97 21.5q72 0 117 -38.5t45 -123.5v-313z" />
<glyph unicode="o" horiz-adv-x="549" d="M274 475q115 0 174 -71t59 -177q0 -104 -58.5 -171.5t-171.5 -67.5q-115 0 -175 69.5t-60 174.5q0 104 59.5 173.5t172.5 69.5zM276 71q56 0 84.5 44t28.5 111q0 69 -30 116t-88 47q-55 0 -83 -43.5t-28 -110.5q0 -69 29.5 -116.5t86.5 -47.5z" />
<glyph unicode="p" horiz-adv-x="575" d="M325 475q102 0 154.5 -70.5t52.5 -175.5t-53.5 -173t-155.5 -68q-100 0 -145 55v-303h-109v720h88l8 -63h4q26 33 70.5 55.5t85.5 22.5zM307 391q-31 0 -69 -18.5t-60 -46.5v-195q46 -56 119 -56q62 0 94 42.5t32 109.5t-29.5 115.5t-86.5 48.5z" />
<glyph unicode="q" horiz-adv-x="575" d="M250 475q41 0 85.5 -22.5t70.5 -55.5h4l8 63h88v-720h-109v303q-45 -55 -145 -55q-102 0 -155.5 68t-53.5 173t52.5 175.5t154.5 70.5zM268 391q-57 0 -86.5 -48.5t-29.5 -115.5t32 -110.5t94 -43.5q67 0 119 58v195q-22 28 -60 46.5t-69 18.5z" />
<glyph unicode="r" horiz-adv-x="374" d="M361 449l-29 -89q-23 18 -67 18q-19 0 -32.5 -8.5t-24 -27t-16 -33t-13.5 -42.5v-267h-110v460h86l5 -96h4q14 28 22 42t23.5 33.5t34 27.5t42.5 8q40 0 75 -26z" />
<glyph unicode="s" horiz-adv-x="433" d="M209 393q-70 0 -70 -48q0 -36 55 -48l71 -16q74 -17 103 -57t29 -86q0 -66 -50.5 -108t-133.5 -42q-98 0 -170 50l26 95q32 -31 74.5 -48t80.5 -17q37 0 57.5 16.5t20.5 45.5q0 18 -10.5 29.5t-39.5 18.5l-96 24q-111 27 -111 133q0 66 46.5 103t122.5 37q98 0 160 -41 l-29 -90q-61 49 -136 49z" />
<glyph unicode="t" horiz-adv-x="332" d="M90 106v287h-57v60l65 10l18 136h84v-139h88v-67h-88v-264q0 -30 6 -40.5t23 -10.5q20 0 64 24l18 -79q-42 -35 -122 -35q-57 0 -78 29t-21 89z" />
<glyph unicode="u" d="M65 460h110v-299q0 -40 21 -62t56 -22q36 0 65 24t42 67v292h111v-460h-86l-6 64h-4q-38 -76 -151 -76q-158 0 -158 159v313z" />
<glyph unicode="v" horiz-adv-x="524" d="M517 460l-190 -460h-133l-184 460h115l139 -369l145 369h108z" />
<glyph unicode="w" horiz-adv-x="822" d="M511 0l-99 320l-99 -320h-133l-167 460h115l120 -353l109 353h110l109 -353l120 353h113l-167 -460h-131z" />
<glyph unicode="x" horiz-adv-x="508" d="M24 460h125l108 -155l103 155h125l-168 -223l178 -237h-125l-117 168l-114 -168h-125l177 235z" />
<glyph unicode="y" horiz-adv-x="519" d="M108 460l160 -327l128 327h106l-190 -464q-17 -40 -39.5 -79t-55.5 -80.5t-77 -67t-91 -25.5q-12 0 -21 3l-19 86q12 -3 24 -3q44 0 75 20q62 39 114 165l-229 445h115z" />
<glyph unicode="z" horiz-adv-x="418" d="M42 89l210 282h-200v89h314v-89l-216 -282h226v-89h-334v89z" />
<glyph unicode="{" horiz-adv-x="292" d="M244 760l2 -51q-35 -4 -35 -68q0 -17 1 -73t1 -70q0 -148 -94 -171q94 -23 94 -171q0 -14 -1 -70t-1 -72q0 -65 35 -69l-2 -51q-86 0 -115 35.5t-29 108.5q0 12 1 67.5t1 78.5t-2 38.5t-8 36t-22 31.5t-40 12v50q72 4 72 111q0 32 -1 88t-1 66q0 73 29 108t115 35z" />
<glyph unicode="|" horiz-adv-x="256" d="M179 768v-882h-102v882h102z" />
<glyph unicode="}" horiz-adv-x="292" d="M48 -106l-2 51q35 4 35 68q0 16 -1 72.5t-1 70.5q0 148 94 171q-94 23 -94 171q0 14 1 70t1 72q0 65 -35 69l2 51q86 0 115 -35.5t29 -108.5q0 -12 -1 -67.5t-1 -78.5t2 -38.5t8 -36t22 -31.5t40 -12v-50q-72 -4 -72 -111q0 -32 1 -88t1 -66q0 -73 -29 -108t-115 -35z " />
<glyph unicode="~" horiz-adv-x="474" d="M411 288q0 -20 -24 -56t-67 -36q-9 0 -87.5 4.5t-98.5 4.5q-39 0 -57 -22l-13 19q0 24 26 58t69 34q9 0 76 -4.5t97 -4.5q48 0 67 23z" />
<glyph unicode="&#xa1;" horiz-adv-x="255" d="M84 284h87l24 -502h-137zM200 405q0 -28 -21 -48.5t-50 -20.5t-51 21t-22 49t22.5 49t51.5 21q28 0 49 -21t21 -50z" />
<glyph unicode="&#xa2;" horiz-adv-x="496" d="M331 577v-136q74 -10 116 -36l-26 -93q-30 27 -90 40v-273q60 14 101 52l20 -93q-49 -32 -121 -44v-131h-92v127q-96 10 -147 74t-51 155q0 89 49.5 151t148.5 73v134h92zM148 222q0 -48 24.5 -87t66.5 -54v272q-43 -12 -67 -49t-24 -82z" />
<glyph unicode="&#xa3;" horiz-adv-x="583" d="M225 79l2 -3q33 -2 107.5 -22t116.5 -20q48 0 93 19l-24 -98q-39 -20 -76 -20q-55 0 -150.5 33t-139.5 33q-56 0 -100 -36l-22 71q73 28 108.5 80.5t35.5 118.5v15h-93v82h89q-2 19 -10.5 74t-8.5 81q0 89 58.5 133.5t137.5 44.5q45 0 89.5 -14t70.5 -35l-22 -91 q-20 20 -58.5 34.5t-75.5 14.5q-80 0 -80 -86q0 -23 7 -78t9 -78h122v-82h-120q-4 -99 -66 -171z" />
<glyph unicode="&#xa4;" horiz-adv-x="592" d="M51 40l71 72q-39 51 -39 118q0 62 40 116l-75 72l55 55l73 -71q58 39 119 39q65 0 118 -39l73 71l55 -54l-71 -73q39 -56 39 -118q0 -63 -38 -116l73 -72l-56 -55l-74 71q-55 -40 -117 -40q-59 0 -119 40l-73 -71zM296 363q-55 0 -94 -38.5t-39 -95.5q0 -56 39 -95 t95 -39q55 0 93.5 39t38.5 95t-38.5 95t-94.5 39z" />
<glyph unicode="&#xa5;" horiz-adv-x="647" d="M112 255h156v12l-25 41h-131v82h82l-163 270h129l169 -299l162 299h127l-163 -270h76v-82h-126l-22 -37v-16h148v-82h-148v-173h-115v173h-156v82z" />
<glyph unicode="&#xa6;" horiz-adv-x="258" d="M78 274h102v-388h-102v388zM180 380h-102v388h102v-388z" />
<glyph unicode="&#xa7;" horiz-adv-x="434" d="M201 550q0 -32 19.5 -60t47.5 -49.5t56 -43.5t47.5 -54t19.5 -69t-17.5 -72t-45.5 -57q11 -28 11 -61q0 -71 -45 -109.5t-100 -38.5q-32 0 -67.5 13.5t-59.5 32.5l33 77q39 -30 78 -30q26 0 40.5 18t14.5 48q0 32 -19.5 60t-47.5 49.5t-56 43.5t-47.5 54t-19.5 69 t17.5 72t45.5 56q-11 30 -11 62q0 71 45 109.5t100 38.5q32 0 67.5 -13.5t59.5 -32.5l-33 -77q-39 30 -78 30q-26 0 -40.5 -18t-14.5 -48zM132 397q0 -37 25 -67t70 -66t65 -60q10 22 10 44q0 36 -25 66.5t-70 66t-66 60.5q-9 -19 -9 -44z" />
<glyph unicode="&#xa8;" horiz-adv-x="220" d="M0 618q0 23 17 41t40 18t41 -18.5t18 -40.5q0 -23 -18 -40t-41 -17t-40 17t-17 40zM136 618q0 23 17 41t40 18t41 -18.5t18 -40.5q0 -23 -18 -40t-41 -17t-40 17t-17 40z" />
<glyph unicode="&#xa9;" horiz-adv-x="711" d="M355 654q126 0 215 -88t89 -212q0 -127 -89.5 -214.5t-219.5 -87.5q-122 0 -210 89t-88 213t88.5 212t214.5 88zM470 497l-16 -70q-15 9 -44.5 16.5t-55.5 7.5q-44 0 -65.5 -28t-21.5 -68q0 -42 23.5 -71.5t66.5 -29.5q57 0 104 36l12 -71q-54 -35 -126 -35 q-77 0 -119 49.5t-42 122.5t41.5 121t124.5 48q75 0 118 -28zM357 600q-103 0 -173.5 -71t-70.5 -173q0 -105 68 -177.5t167 -72.5q106 0 176.5 71t70.5 176q0 103 -69 175t-169 72z" />
<glyph unicode="&#xaa;" horiz-adv-x="365" d="M299 369h-59l-4 37h-4q-16 -20 -43.5 -32.5t-56.5 -12.5q-38 0 -59.5 22t-21.5 58q0 49 40 77t110 28h25v9q0 25 -15 36q-17 13 -46 13q-38 0 -81 -30l-13 55q39 29 99 29t92 -25q37 -30 37 -83v-181zM157 415q43 0 69 34v55h-11q-94 0 -94 -54q0 -35 36 -35z" />
<glyph unicode="&#xab;" horiz-adv-x="531" d="M144 243v-5l145 -177h-113l-133 178v5l134 176h112zM338 243v-5l145 -177h-113l-133 178v5l134 176h112z" />
<glyph unicode="&#xac;" horiz-adv-x="624" d="M69 356h480v-239h-93v157h-387v82z" />
<glyph unicode="&#xad;" horiz-adv-x="466" d="M65 280h336v-82h-336v82z" />
<glyph unicode="&#xae;" horiz-adv-x="711" d="M355 654q126 0 215 -88t89 -212q0 -127 -89.5 -214.5t-219.5 -87.5q-122 0 -210 89t-88 213t88.5 212t214.5 88zM357 600q-103 0 -173.5 -71t-70.5 -173q0 -105 68 -177.5t167 -72.5q106 0 176.5 71t70.5 176q0 103 -69 175t-169 72zM355 320h-41v-119h-67v328q31 3 83 3 q77 0 107 -28.5t30 -79.5q0 -58 -54 -88l75 -135h-71zM330 484h-16v-116h29q27 0 43 18t16 44q0 54 -72 54z" />
<glyph unicode="&#xb0;" horiz-adv-x="370" d="M184 658q66 0 102 -37.5t36 -95.5q0 -55 -35 -90.5t-103 -35.5t-102 36.5t-34 91.5q0 56 36 93.5t100 37.5zM184 460q33 0 48.5 19t15.5 48t-16 48t-48 19q-33 0 -49.5 -18.5t-16.5 -45.5q0 -29 17.5 -49.5t48.5 -20.5z" />
<glyph unicode="&#xb1;" horiz-adv-x="463" d="M72 284v82h116v89h92v-89h111v-82h-111v-101h-92v101h-116zM71 123h321v-82h-321v82z" />
<glyph unicode="&#xb2;" horiz-adv-x="377" d="M90 542l-17 64q65 59 131 59q49 0 77.5 -27t28.5 -69q0 -36 -26 -74.5t-52.5 -62.5t-84.5 -71h163v-62h-252v62q23 25 72.5 64t78.5 70.5t29 64.5q0 45 -42 45q-25 0 -54.5 -17.5t-51.5 -45.5z" />
<glyph unicode="&#xb3;" horiz-adv-x="340" d="M83 576l-11 59q49 30 91 30q50 0 79 -24.5t29 -64.5q0 -46 -47 -75q66 -23 66 -90q0 -50 -35 -83.5t-104 -33.5q-34 0 -56 9t-47 29l12 60q17 -14 26.5 -20.5t25.5 -12t35 -5.5q73 0 73 62q0 27 -19 41t-65 14h-12v54h15q63 0 63 47q0 33 -41 33q-43 0 -78 -29z" />
<glyph unicode="&#xb4;" horiz-adv-x="219" d="M23 533l-8 3l-15 36l3 7l180 101q6 3 10 3q13 0 21.5 -16.5t8.5 -35.5q0 -25 -13 -29z" />
<glyph unicode="&#xb5;" horiz-adv-x="573" d="M107 460h110v-299q0 -40 21 -62t56 -22q36 0 65 24.5t42 67.5v291h111v-460h-86l-6 64h-4q-38 -76 -150 -76q-42 0 -75 12l-2 -8q-17 -70 -54 -150l-104 47q40 76 58 133t18 125v313z" />
<glyph unicode="&#xb6;" horiz-adv-x="557" d="M248 -86v334h-21q-89 0 -141.5 59t-52.5 146q0 102 65 157t175 55q37 0 194 -5v-746h-85v655h-44v-655h-90z" />
<glyph unicode="&#xb7;" horiz-adv-x="267" d="M62 243q0 28 21 50.5t50 22.5q28 0 50.5 -22.5t22.5 -50.5q0 -29 -22.5 -50t-50.5 -21q-29 0 -50 21t-21 50z" />
<glyph unicode="&#xb8;" horiz-adv-x="202" d="M1 -199l-1 6l28 48h7q30 -12 63 -12q44 0 44 30q0 31 -42 31q-24 0 -48 -7l-19 26l51 77h54l-25 -41q15 4 29 4q34 0 56.5 -23.5t22.5 -58.5q0 -40 -36 -69.5t-89 -29.5q-44 0 -95 19z" />
<glyph unicode="&#xb9;" horiz-adv-x="252" d="M180 665v-366h-75v266l-57 -28l-13 52z" />
<glyph unicode="&#xba;" horiz-adv-x="392" d="M195 668q69 0 109.5 -46t40.5 -112q0 -63 -39 -107t-110 -44q-72 0 -110.5 45t-38.5 109q0 65 40.5 110t107.5 45zM196 430q67 0 67 80q0 37 -18 60.5t-52 23.5q-65 0 -65 -80q0 -37 17.5 -60.5t50.5 -23.5z" />
<glyph unicode="&#xbb;" horiz-adv-x="531" d="M387 238v5l-145 177h112l134 -176v-5l-133 -178h-113zM193 238v5l-145 177h112l134 -176v-5l-133 -178h-113z" />
<glyph unicode="&#xbc;" horiz-adv-x="773" d="M734 153v-62h-34v-91h-68v91h-182v62l147 213h103v-213h34zM522 153h110v154zM641 691l-463 -715h-90l463 715h90zM179 665v-366h-75v266l-57 -28l-13 52z" />
<glyph unicode="&#xbd;" horiz-adv-x="779" d="M643 691l-463 -715h-90l463 715h90zM179 665v-366h-75v266l-57 -28l-13 52zM514 243l-17 64q65 59 131 59q49 0 77.5 -27t28.5 -69q0 -36 -26 -74.5t-52.5 -62.5t-84.5 -71h163v-62h-252v62q23 25 72.5 64t78.5 70.5t29 64.5q0 45 -42 45q-25 0 -54.5 -17.5t-51.5 -45.5z " />
<glyph unicode="&#xbe;" horiz-adv-x="774" d="M71 576l-11 59q49 30 91 30q50 0 79 -24.5t29 -64.5q0 -46 -47 -75q66 -23 66 -90q0 -50 -35 -83.5t-104 -33.5q-56 0 -103 38l12 60q17 -14 26.5 -20.5t25.5 -12t35 -5.5q73 0 73 62q0 27 -19 41t-65 14h-12v54h15q63 0 63 47q0 33 -41 33q-43 0 -78 -29zM663 691 l-463 -715h-90l463 715h90zM736 153v-62h-34v-91h-68v91h-182v62l147 213h103v-213h34zM524 153h110v154z" />
<glyph unicode="&#xbf;" horiz-adv-x="401" d="M342 -74l26 -96q-69 -52 -156 -52q-73 0 -121 45t-48 113q0 39 19.5 80.5t43 73.5t43.5 83.5t20 109.5h104q0 -62 -19 -116t-41.5 -85t-41.5 -67.5t-19 -66.5q0 -37 22.5 -54.5t55.5 -17.5q31 0 62.5 14t49.5 36zM290 405q0 -28 -21 -48.5t-50 -20.5t-51 21t-22 49 t22.5 49t51.5 21q28 0 49 -21t21 -50z" />
<glyph unicode="&#xc0;" horiz-adv-x="628" d="M357 661l282 -660h-125l-75 192h-249l-68 -192h-120l256 660h99zM308 526l-86 -243h181zM413 701l-8 -3l-187 69q-13 4 -13 29q0 19 8.5 35.5t21.5 16.5q4 0 10 -3l180 -101l3 -7z" />
<glyph unicode="&#xc1;" horiz-adv-x="628" d="M357 660l282 -660h-125l-75 192h-249l-68 -192h-120l256 660h99zM308 525l-86 -243h181zM225 699l-8 3l-15 36l3 7l180 101q6 3 10 3q13 0 21.5 -16.5t8.5 -35.5q0 -25 -13 -29z" />
<glyph unicode="&#xc2;" horiz-adv-x="628" d="M357 660l282 -660h-125l-75 192h-249l-68 -192h-120l256 660h99zM308 525l-86 -243h181zM315 842h8l110 -99l3 -7l-16 -29l-7 -3l-94 41l-94 -41l-7 3l-16 29l3 7z" />
<glyph unicode="&#xc3;" horiz-adv-x="628" d="M357 660l282 -660h-125l-75 192h-249l-68 -192h-120l256 660h99zM308 525l-86 -243h181zM473 818q-7 -39 -28.5 -65.5t-61.5 -26.5q-14 0 -61 7t-72 7q-51 0 -75 -25l-13 23q14 45 33.5 68t64.5 23q19 0 63 -7t62 -7q41 0 76 26z" />
<glyph unicode="&#xc4;" horiz-adv-x="628" d="M357 660l282 -660h-125l-75 192h-249l-68 -192h-120l256 660h99zM308 525l-86 -243h181zM192 783q0 23 17 41t40 18t41 -18t18 -41t-18 -40t-41 -17t-40 17t-17 40zM328 783q0 23 17 41t40 18t41 -18t18 -41t-18 -40t-41 -17t-40 17t-17 40z" />
<glyph unicode="&#xc5;" horiz-adv-x="635" d="M311 792q42 0 69 -26.5t27 -62.5q0 -44 -39 -68l279 -635h-129l-75 202h-249l-68 -202h-124l253 635q-41 23 -41 70q0 36 27.5 61.5t69.5 25.5zM312 525l-86 -233h181zM312 664q15 0 25 12t10 27q0 16 -10.5 27.5t-26.5 11.5q-17 0 -27 -10.5t-10 -25.5q0 -17 11.5 -29.5 t27.5 -12.5z" />
<glyph unicode="&#xc6;" horiz-adv-x="757" d="M717 102v-102h-331v190h-177l-101 -190h-122l352 660h359v-102h-202v-157h135v-102h-135v-197h222zM262 290h124v234z" />
<glyph unicode="&#xc7;" horiz-adv-x="629" d="M259 -199l-1 6l28 48h7q30 -12 63 -12q44 0 44 30q0 31 -42 31q-24 0 -48 -7l-19 26l44 67q-139 11 -211.5 104t-72.5 229q0 149 86.5 245.5t243.5 96.5q115 0 201 -43l-29 -104q-71 49 -178 49q-104 0 -153 -62.5t-49 -173.5q0 -120 51.5 -182.5t148.5 -62.5 q115 0 191 62l30 -99q-93 -56 -205 -60l-18 -30q15 4 29 4q34 0 56.5 -23.5t22.5 -58.5q0 -40 -36 -69.5t-89 -29.5q-44 0 -95 19z" />
<glyph unicode="&#xc8;" horiz-adv-x="529" d="M403 400v-100h-200v-200h287v-100h-402v660h382v-100h-267v-160h200zM382 701l-8 -3l-187 69q-13 4 -13 29q0 19 8.5 35.5t21.5 16.5q4 0 10 -3l180 -101l3 -7z" />
<glyph unicode="&#xc9;" horiz-adv-x="529" d="M403 400v-100h-200v-200h287v-100h-402v660h382v-100h-267v-160h200zM209 698l-8 3l-15 36l3 7l180 101q6 3 10 3q13 0 21.5 -16.5t8.5 -35.5q0 -25 -13 -29z" />
<glyph unicode="&#xca;" horiz-adv-x="529" d="M403 400v-100h-200v-200h287v-100h-402v660h382v-100h-267v-160h200zM292 842h8l110 -99l3 -7l-16 -29l-7 -3l-94 41l-94 -41l-7 3l-16 29l3 7z" />
<glyph unicode="&#xcb;" horiz-adv-x="529" d="M403 400v-100h-200v-200h287v-100h-402v660h382v-100h-267v-160h200zM161 784q0 23 17 41t40 18q22 0 40.5 -18.5t18.5 -40.5q0 -23 -18 -40t-41 -17t-40 17t-17 40zM297 784q0 23 17 41t40 18q22 0 40.5 -18.5t18.5 -40.5q0 -23 -18 -40t-41 -17t-40 17t-17 40z" />
<glyph unicode="&#xcc;" horiz-adv-x="291" d="M203 660v-660h-115v660h115zM230 701l-8 -3l-187 69q-13 4 -13 29q0 19 8.5 35.5t21.5 16.5q4 0 10 -3l180 -101l3 -7z" />
<glyph unicode="&#xcd;" horiz-adv-x="291" d="M88 0v660h115v-660h-115zM69 698l-8 3l-15 36l3 7l180 101q6 3 10 3q13 0 21.5 -16.5t8.5 -35.5q0 -25 -13 -29z" />
<glyph unicode="&#xce;" horiz-adv-x="291" d="M203 660v-660h-115v660h115zM139 842h8l110 -99l3 -7l-16 -29l-7 -3l-94 41l-94 -41l-7 3l-16 29l3 7z" />
<glyph unicode="&#xcf;" horiz-adv-x="291" d="M203 660v-660h-115v660h115zM21 783q0 23 17 41t40 18q22 0 40.5 -18t18.5 -41t-18 -40t-41 -17t-40 17t-17 40zM157 783q0 23 17 41t40 18q22 0 40.5 -18t18.5 -41t-18 -40t-41 -17t-40 17t-17 40z" />
<glyph unicode="&#xd0;" horiz-adv-x="714" d="M94 385v275q60 5 204 5q177 0 263 -75q101 -88 101 -274q0 -56 -10 -101.5t-36 -88.5t-68 -72.5t-110.5 -47t-158.5 -17.5q-88 0 -185 11v311h-74v74h74zM209 385h148v-74h-148v-223q49 -4 98 -4q122 0 177 58t55 189q0 123 -54 180.5t-189 57.5q-52 0 -87 -1v-183z" />
<glyph unicode="&#xd1;" horiz-adv-x="722" d="M493 0l-290 484v-484h-115v660h141l290 -485v485h115v-660h-141zM500 818q-7 -39 -28.5 -65.5t-61.5 -26.5q-14 0 -61 7t-72 7q-51 0 -75 -25l-13 23q14 45 33.5 68t64.5 23q19 0 63 -7t62 -7q41 0 76 26z" />
<glyph unicode="&#xd2;" horiz-adv-x="742" d="M371 665q150 0 236 -97t86 -239q0 -67 -21 -127.5t-61 -108.5t-104 -76.5t-143 -28.5q-102 0 -175 47t-106.5 121t-33.5 166q0 148 86 245.5t236 97.5zM366 86q104 0 154.5 66t50.5 174q0 112 -50.5 176.5t-152.5 64.5t-149 -62.5t-47 -172.5q0 -121 50 -183.5t144 -62.5 zM438 701l-8 -3l-187 69q-13 4 -13 29q0 19 8.5 35.5t21.5 16.5q4 0 10 -3l180 -101l3 -7z" />
<glyph unicode="&#xd3;" horiz-adv-x="742" d="M371 665q150 0 236 -97t86 -239q0 -67 -21 -127.5t-61 -108.5t-104 -76.5t-143 -28.5q-102 0 -175 47t-106.5 121t-33.5 166q0 148 86 245.5t236 97.5zM366 86q104 0 154.5 66t50.5 174q0 112 -50.5 176.5t-152.5 64.5t-149 -62.5t-47 -172.5q0 -121 50 -183.5t144 -62.5 zM321 698l-8 3l-15 36l3 7l180 101q6 3 10 3q13 0 21.5 -16.5t8.5 -35.5q0 -25 -13 -29z" />
<glyph unicode="&#xd4;" horiz-adv-x="742" d="M371 665q150 0 236 -97t86 -239q0 -67 -21 -127.5t-61 -108.5t-104 -76.5t-143 -28.5q-102 0 -175 47t-106.5 121t-33.5 166q0 148 86 245.5t236 97.5zM366 86q104 0 154.5 66t50.5 174q0 112 -50.5 176.5t-152.5 64.5t-149 -62.5t-47 -172.5q0 -121 50 -183.5t144 -62.5 zM377 842h8l110 -99l3 -7l-16 -29l-7 -3l-94 41l-94 -41l-7 3l-16 29l3 7z" />
<glyph unicode="&#xd5;" horiz-adv-x="742" d="M371 665q150 0 236 -97t86 -239q0 -67 -21 -127.5t-61 -108.5t-104 -76.5t-143 -28.5q-102 0 -175 47t-106.5 121t-33.5 166q0 148 86 245.5t236 97.5zM366 86q104 0 154.5 66t50.5 174q0 112 -50.5 176.5t-152.5 64.5t-149 -62.5t-47 -172.5q0 -121 50 -183.5t144 -62.5 zM527 818q-7 -39 -28.5 -65.5t-61.5 -26.5q-14 0 -61 7t-72 7q-51 0 -75 -25l-13 23q14 45 33.5 68t64.5 23q19 0 63 -7t62 -7q41 0 76 26z" />
<glyph unicode="&#xd6;" horiz-adv-x="742" d="M371 665q150 0 236 -97t86 -239q0 -67 -21 -127.5t-61 -108.5t-104 -76.5t-143 -28.5q-102 0 -175 47t-106.5 121t-33.5 166q0 148 86 245.5t236 97.5zM366 86q104 0 154.5 66t50.5 174q0 112 -50.5 176.5t-152.5 64.5t-149 -62.5t-47 -172.5q0 -121 50 -183.5t144 -62.5 zM246 783q0 23 17 41t40 18t41 -18t18 -41t-18 -40t-41 -17t-40 17t-17 40zM382 783q0 23 17 41t40 18t41 -18t18 -41t-18 -40t-41 -17t-40 17t-17 40z" />
<glyph unicode="&#xd7;" horiz-adv-x="456" d="M343 73l-115 114l-113 -113l-52 52l113 113l-113 112l52 52l113 -112l114 114l52 -52l-114 -114l114 -115z" />
<glyph unicode="&#xd8;" horiz-adv-x="743" d="M372 665q96 0 172 -45l67 79l81 -62l-72 -84q74 -92 74 -224q0 -67 -21 -127.5t-61 -108.5t-104 -76.5t-143 -28.5q-108 0 -181 50l-73 -86l-76 68l76 90q-61 86 -61 212q0 148 86 245.5t236 97.5zM367 86q104 0 154.5 66t50.5 174q0 81 -27 138l-292 -345 q45 -33 114 -33zM173 332q0 -76 19 -127l284 336q-44 26 -107 26q-102 0 -149 -62.5t-47 -172.5z" />
<glyph unicode="&#xd9;" horiz-adv-x="705" d="M196 660v-404q0 -170 159 -170q160 0 160 170v404h110v-428q0 -106 -69.5 -174.5t-206.5 -68.5q-136 0 -202 68t-66 175v428h115zM436 701l-8 -3l-187 69q-13 4 -13 29q0 19 8.5 35.5t21.5 16.5q4 0 10 -3l180 -101l3 -7z" />
<glyph unicode="&#xda;" horiz-adv-x="705" d="M196 660v-404q0 -170 159 -170q160 0 160 170v404h110v-428q0 -106 -69.5 -174.5t-206.5 -68.5q-136 0 -202 68t-66 175v428h115zM280 698l-8 3l-15 36l3 7l180 101q6 3 10 3q13 0 21.5 -16.5t8.5 -35.5q0 -25 -13 -29z" />
<glyph unicode="&#xdb;" horiz-adv-x="705" d="M196 660v-404q0 -170 159 -170q160 0 160 170v404h110v-428q0 -106 -69.5 -174.5t-206.5 -68.5q-136 0 -202 68t-66 175v428h115zM345 842h8l110 -99l3 -7l-16 -29l-7 -3l-94 41l-94 -41l-7 3l-16 29l3 7z" />
<glyph unicode="&#xdc;" horiz-adv-x="705" d="M196 660v-404q0 -170 159 -170q160 0 160 170v404h110v-428q0 -106 -69.5 -174.5t-206.5 -68.5q-136 0 -202 68t-66 175v428h115zM239 783q0 23 17 41t40 18q22 0 40.5 -18t18.5 -41t-18 -40t-41 -17t-40 17t-17 40zM375 783q0 23 17 41t40 18q22 0 40.5 -18t18.5 -41 t-18 -40t-41 -17t-40 17t-17 40z" />
<glyph unicode="&#xdd;" horiz-adv-x="564" d="M225 267l-237 393h129l169 -299l162 299h127l-235 -389v-271h-115v267zM234 698l-8 3l-15 36l3 7l180 101q6 3 10 3q13 0 21.5 -16.5t8.5 -35.5q0 -25 -13 -29z" />
<glyph unicode="&#xde;" horiz-adv-x="532" d="M203 660v-110h44q115 0 182.5 -55t67.5 -157q0 -89 -58.5 -147t-170.5 -58q-45 0 -65 1v-134h-115v660h115zM263 454q-41 0 -60 -1v-223q19 -1 62 -1q109 0 109 117q0 108 -111 108z" />
<glyph unicode="&#xdf;" horiz-adv-x="553" d="M169 486v-486h-100v486q0 116 51.5 183t148.5 67q71 0 116.5 -40t45.5 -95q0 -38 -25.5 -78t-51 -74.5t-25.5 -58.5q0 -22 20.5 -42t49.5 -38t58 -39t49.5 -55.5t20.5 -77.5q0 -81 -51.5 -123t-109.5 -42q-67 0 -117 44l29 105q38 -67 95 -67q21 0 35.5 19t14.5 53 q0 39 -19.5 68t-47.5 47t-56 35t-47.5 43.5t-19.5 62.5q0 31 14.5 62t32 51.5t32 47.5t14.5 52t-16 42t-45 17q-30 0 -50 -13.5t-29.5 -39t-13 -52.5t-3.5 -64z" />
<glyph unicode="&#xe0;" horiz-adv-x="501" d="M437 0h-88l-8 63h-4q-27 -34 -73.5 -54.5t-94.5 -20.5q-62 0 -98.5 36.5t-36.5 96.5q0 82 67.5 128.5t182.5 46.5h43v15q0 39 -25 57q-26 18 -81 18q-73 0 -132 -33l-21 83q68 39 162 39q100 0 152 -41q55 -43 55 -121v-313zM212 77q32 0 64 16t51 41v91h-19 q-82 0 -119.5 -21t-37.5 -67q0 -60 61 -60zM313 534l-8 -3l-187 69q-13 4 -13 29q0 19 8.5 35.5t21.5 16.5q4 0 10 -3l180 -101l3 -7z" />
<glyph unicode="&#xe1;" horiz-adv-x="501" d="M437 0h-88l-8 63h-4q-27 -34 -73.5 -54.5t-94.5 -20.5q-62 0 -98.5 36.5t-36.5 96.5q0 82 67.5 128.5t182.5 46.5h43v15q0 39 -25 57q-26 18 -81 18q-73 0 -132 -33l-21 83q68 39 162 39q100 0 152 -41q55 -43 55 -121v-313zM212 77q32 0 64 16t51 41v91h-19 q-82 0 -119.5 -21t-37.5 -67q0 -60 61 -60zM202 532l-8 3l-15 36l3 7l180 101q6 3 10 3q13 0 21.5 -16.5t8.5 -35.5q0 -25 -13 -29z" />
<glyph unicode="&#xe2;" horiz-adv-x="501" d="M437 0h-88l-8 63h-4q-27 -34 -73.5 -54.5t-94.5 -20.5q-62 0 -98.5 36.5t-36.5 96.5q0 82 67.5 128.5t182.5 46.5h43v15q0 39 -25 57q-26 18 -81 18q-73 0 -132 -33l-21 83q68 39 162 39q100 0 152 -41q55 -43 55 -121v-313zM212 77q32 0 64 16t51 41v91h-19 q-82 0 -119.5 -21t-37.5 -67q0 -60 61 -60zM238 673h8l110 -99l3 -7l-16 -29l-7 -3l-94 41l-94 -41l-7 3l-16 29l3 7z" />
<glyph unicode="&#xe3;" horiz-adv-x="501" d="M437 0h-88l-8 63h-4q-27 -34 -73.5 -54.5t-94.5 -20.5q-62 0 -98.5 36.5t-36.5 96.5q0 82 67.5 128.5t182.5 46.5h43v15q0 39 -25 57q-26 18 -81 18q-73 0 -132 -33l-21 83q68 39 162 39q100 0 152 -41q55 -43 55 -121v-313zM212 77q32 0 64 16t51 41v91h-19 q-82 0 -119.5 -21t-37.5 -67q0 -60 61 -60zM405 658q-7 -39 -28.5 -65.5t-61.5 -26.5q-14 0 -61 7t-72 7q-51 0 -75 -25l-13 23q14 45 33.5 68t64.5 23q19 0 63 -7t62 -7q41 0 76 26z" />
<glyph unicode="&#xe4;" horiz-adv-x="501" d="M437 0h-88l-8 63h-4q-27 -34 -73.5 -54.5t-94.5 -20.5q-62 0 -98.5 36.5t-36.5 96.5q0 82 67.5 128.5t182.5 46.5h43v15q0 39 -25 57q-26 18 -81 18q-73 0 -132 -33l-21 83q68 39 162 39q100 0 152 -41q55 -43 55 -121v-313zM212 77q32 0 64 16t51 41v91h-19 q-82 0 -119.5 -21t-37.5 -67q0 -60 61 -60zM126 612q0 23 17 41t40 18t41 -18.5t18 -40.5q0 -23 -18 -40t-41 -17t-40 17t-17 40zM262 612q0 23 17 41t40 18t41 -18.5t18 -40.5q0 -23 -18 -40t-41 -17t-40 17t-17 40z" />
<glyph unicode="&#xe5;" horiz-adv-x="501" d="M256 693q42 0 67.5 -25.5t25.5 -59.5q0 -32 -25 -56t-67 -24q-44 0 -68.5 25t-24.5 57q0 33 25.5 58t66.5 25zM257 572q15 0 24.5 11t9.5 25q0 15 -10 28t-26 13t-25 -11.5t-9 -26.5t10.5 -27t25.5 -12zM437 0h-88l-8 63h-4q-27 -34 -73.5 -54.5t-94.5 -20.5 q-62 0 -98.5 36.5t-36.5 96.5q0 82 67.5 128.5t182.5 46.5h43v15q0 39 -25 57q-26 18 -81 18q-73 0 -132 -33l-21 83q68 39 162 39q100 0 152 -41q55 -43 55 -121v-313zM212 77q32 0 64 16t51 41v91h-19q-82 0 -119.5 -21t-37.5 -67q0 -60 61 -60z" />
<glyph unicode="&#xe6;" horiz-adv-x="802" d="M575 475q88 0 136 -44.5t48 -125.5q0 -59 -19 -85h-291q4 -64 39 -104.5t97 -40.5q36 0 77.5 14t71.5 35l18 -82q-86 -54 -184 -54q-119 0 -182 86q-76 -86 -213 -86q-67 0 -103 37t-36 96q0 54 26 91t68.5 54t80 23.5t76.5 6.5h42v9q0 46 -31 66q-23 15 -65 15 q-73 0 -142 -33l-21 83q72 39 169 39q119 0 169 -65q65 65 169 65zM212 77q30 0 63 15.5t52 41.5v93h-7q-35 0 -60.5 -3t-52.5 -12.5t-41.5 -30t-14.5 -51.5q0 -25 16.5 -39t44.5 -14zM572 389q-43 0 -72 -25t-42 -66h191q1 6 1 18q0 34 -22.5 53.5t-55.5 19.5z" />
<glyph unicode="&#xe7;" horiz-adv-x="490" d="M449 435l-24 -89q-23 17 -64 30t-77 13q-64 0 -93.5 -42t-29.5 -107q0 -71 33.5 -117t95.5 -46q37 0 77.5 15t66.5 40l20 -94q-67 -43 -159 -49l-18 -30q15 4 29 4q34 0 56.5 -23.5t22.5 -58.5q0 -40 -36 -69.5t-89 -29.5q-44 0 -95 19l-1 6l28 48h7q30 -12 63 -12 q44 0 44 30q0 31 -42 31q-24 0 -48 -7l-19 26l44 67q-96 11 -147 79t-51 165q0 104 60 172.5t178 68.5q106 0 168 -40z" />
<glyph unicode="&#xe8;" horiz-adv-x="505" d="M278 475q88 0 136 -44.5t48 -125.5q0 -59 -19 -85h-291q4 -64 39 -104.5t97 -40.5q36 0 77.5 14t71.5 35l18 -82q-86 -54 -184 -54q-107 0 -168.5 70t-61.5 172q0 104 63.5 174.5t173.5 70.5zM338 534l-8 -3l-187 69q-13 4 -13 29q0 19 8.5 35.5t21.5 16.5q4 0 10 -3 l180 -101l3 -7zM275 389q-43 0 -72 -25t-42 -66h191q1 6 1 18q0 34 -22.5 53.5t-55.5 19.5z" />
<glyph unicode="&#xe9;" horiz-adv-x="505" d="M278 475q88 0 136 -44.5t48 -125.5q0 -59 -19 -85h-291q4 -64 39 -104.5t97 -40.5q36 0 77.5 14t71.5 35l18 -82q-86 -54 -184 -54q-107 0 -168.5 70t-61.5 172q0 104 63.5 174.5t173.5 70.5zM208 532l-8 3l-15 36l3 7l180 101q6 3 10 3q13 0 21.5 -17t8.5 -35 q0 -25 -13 -29zM275 389q-43 0 -72 -25t-42 -66h191q1 6 1 18q0 34 -22.5 53.5t-55.5 19.5z" />
<glyph unicode="&#xea;" horiz-adv-x="505" d="M278 475q88 0 136 -44.5t48 -125.5q0 -59 -19 -85h-291q4 -64 39 -104.5t97 -40.5q36 0 77.5 14t71.5 35l18 -82q-86 -54 -184 -54q-107 0 -168.5 70t-61.5 172q0 104 63.5 174.5t173.5 70.5zM261 673h8l110 -99l3 -7l-16 -29l-7 -3l-94 41l-94 -41l-7 3l-16 29l3 7z M275 389q-43 0 -72 -25t-42 -66h191q1 6 1 18q0 34 -22.5 53.5t-55.5 19.5z" />
<glyph unicode="&#xeb;" horiz-adv-x="505" d="M278 475q88 0 136 -44.5t48 -125.5q0 -59 -19 -85h-291q4 -64 39 -104.5t97 -40.5q36 0 77.5 14t71.5 35l18 -82q-86 -54 -184 -54q-107 0 -168.5 70t-61.5 172q0 104 63.5 174.5t173.5 70.5zM275 389q-43 0 -72 -25t-42 -66h191q1 6 1 18q0 34 -22.5 53.5t-55.5 19.5z M138 612q0 23 17 41t40 18t41 -18.5t18 -40.5q0 -23 -18 -40t-41 -17t-40 17t-17 40zM274 612q0 23 17 41t40 18t41 -18.5t18 -40.5q0 -23 -18 -40t-41 -17t-40 17t-17 40z" />
<glyph unicode="&#xec;" horiz-adv-x="248" d="M179 460v-460h-110v460h110zM184 534l-8 -3l-187 69q-13 4 -13 29q0 19 8.5 35.5t21.5 16.5q4 0 10 -3l180 -101l3 -7z" />
<glyph unicode="&#xed;" horiz-adv-x="248" d="M179 460v-460h-110v460h110zM47 532l-8 3l-15 36l3 7l180 101q6 3 10 3q13 0 21.5 -16.5t8.5 -35.5q0 -25 -13 -29z" />
<glyph unicode="&#xee;" horiz-adv-x="248" d="M179 460v-460h-110v460h110zM117 673h8l110 -99l3 -7l-16 -29l-7 -3l-94 41l-94 -41l-7 3l-16 29l3 7z" />
<glyph unicode="&#xef;" horiz-adv-x="248" d="M179 460v-460h-110v460h110zM-3 612q0 23 17 41t40 18q22 0 40.5 -18.5t18.5 -40.5q0 -23 -18 -40t-41 -17t-40 17t-17 40zM133 612q0 23 17 41t40 18q22 0 40.5 -18.5t18.5 -40.5q0 -23 -18 -40t-41 -17t-40 17t-17 40z" />
<glyph unicode="&#xf0;" horiz-adv-x="560" d="M222 542l-21 65l97 25q-56 75 -114 108h147q40 -39 69 -81l123 33l21 -68l-106 -27q74 -141 74 -307q0 -64 -11.5 -116t-37.5 -95t-73 -67t-113 -24q-61 0 -108 21t-74 56t-40 77.5t-13 89.5q0 103 58.5 173t160.5 70q98 0 137 -65l3 1q-11 72 -63 160zM276 71 q56 0 84.5 44t28.5 111q0 69 -30 116t-88 47q-55 0 -83 -43.5t-28 -110.5q0 -69 29.5 -116.5t86.5 -47.5z" />
<glyph unicode="&#xf1;" horiz-adv-x="547" d="M425 658q-7 -39 -28.5 -65.5t-61.5 -26.5q-14 0 -61 7t-72 7q-51 0 -75 -25l-13 23q14 45 33.5 68t64.5 23q19 0 63 -7t62 -7q41 0 76 26zM487 0h-110v304q0 82 -70 82q-37 0 -76 -25t-52 -66v-295h-110v460h86l5 -68h4q20 40 64 61.5t97 21.5q72 0 117 -38.5t45 -123.5 v-313z" />
<glyph unicode="&#xf2;" horiz-adv-x="549" d="M274 475q115 0 174 -71t59 -177q0 -104 -58.5 -171.5t-171.5 -67.5q-115 0 -175 69.5t-60 174.5q0 104 59.5 173.5t172.5 69.5zM276 71q56 0 84.5 44t28.5 111q0 69 -30 116t-88 47q-55 0 -83 -43.5t-28 -110.5q0 -69 29.5 -116.5t86.5 -47.5zM337 534l-8 -3l-187 69 q-13 4 -13 29q0 19 8.5 35.5t21.5 16.5q4 0 10 -3l180 -101l3 -7z" />
<glyph unicode="&#xf3;" horiz-adv-x="549" d="M274 475q115 0 174 -71t59 -177q0 -104 -58.5 -171.5t-171.5 -67.5q-115 0 -175 69.5t-60 174.5q0 104 59.5 173.5t172.5 69.5zM276 71q56 0 84.5 44t28.5 111q0 69 -30 116t-88 47q-55 0 -83 -43.5t-28 -110.5q0 -69 29.5 -116.5t86.5 -47.5zM215 532l-8 3l-15 36l3 7 l180 101q6 3 10 3q13 0 21.5 -16.5t8.5 -35.5q0 -25 -13 -29z" />
<glyph unicode="&#xf4;" horiz-adv-x="549" d="M274 475q115 0 174 -71t59 -177q0 -104 -58.5 -171.5t-171.5 -67.5q-115 0 -175 69.5t-60 174.5q0 104 59.5 173.5t172.5 69.5zM276 71q56 0 84.5 44t28.5 111q0 69 -30 116t-88 47q-55 0 -83 -43.5t-28 -110.5q0 -69 29.5 -116.5t86.5 -47.5zM279 673h8l110 -99l3 -7 l-16 -29l-7 -3l-94 41l-94 -41l-7 3l-16 29l3 7z" />
<glyph unicode="&#xf5;" horiz-adv-x="549" d="M274 475q115 0 174 -71t59 -177q0 -104 -58.5 -171.5t-171.5 -67.5q-115 0 -175 69.5t-60 174.5q0 104 59.5 173.5t172.5 69.5zM276 71q56 0 84.5 44t28.5 111q0 69 -30 116t-88 47q-55 0 -83 -43.5t-28 -110.5q0 -69 29.5 -116.5t86.5 -47.5zM420 658 q-7 -39 -28.5 -65.5t-61.5 -26.5q-14 0 -61 7t-72 7q-51 0 -75 -25l-13 23q14 45 33.5 68t64.5 23q19 0 63 -7t62 -7q41 0 76 26z" />
<glyph unicode="&#xf6;" horiz-adv-x="549" d="M274 475q115 0 174 -71t59 -177q0 -104 -58.5 -171.5t-171.5 -67.5q-115 0 -175 69.5t-60 174.5q0 104 59.5 173.5t172.5 69.5zM276 71q56 0 84.5 44t28.5 111q0 69 -30 116t-88 47q-55 0 -83 -43.5t-28 -110.5q0 -69 29.5 -116.5t86.5 -47.5zM150 612q0 23 17 41t40 18 t41 -18.5t18 -40.5q0 -23 -18 -40t-41 -17t-40 17t-17 40zM286 612q0 23 17 41t40 18t41 -18.5t18 -40.5q0 -23 -18 -40t-41 -17t-40 17t-17 40z" />
<glyph unicode="&#xf7;" horiz-adv-x="513" d="M50 280h414v-82h-414v82zM196 64q0 28 21 50.5t50 22.5q28 0 50.5 -22.5t22.5 -50.5q0 -29 -22.5 -50t-50.5 -21q-29 0 -50 21t-21 50zM196 412q0 28 21 50.5t50 22.5q28 0 50.5 -22.5t22.5 -50.5q0 -29 -22.5 -50t-50.5 -21q-29 0 -50 21t-21 50z" />
<glyph unicode="&#xf8;" horiz-adv-x="550" d="M458 497l59 -44l-57 -65q47 -66 47 -161q0 -104 -58.5 -171.5t-171.5 -67.5q-80 0 -135 36l-54 -62l-56 50l55 63q-45 62 -45 157q0 104 59.5 173.5t172.5 69.5q76 0 133 -36zM276 71q56 0 84.5 44t28.5 111q0 42 -12 78l-176 -201q29 -32 75 -32zM160 235q0 -43 10 -76 l176 199q-31 31 -75 31q-55 0 -83 -43.5t-28 -110.5z" />
<glyph unicode="&#xf9;" d="M65 460h110v-299q0 -40 21 -62t56 -22q36 0 65 24t42 67v292h111v-460h-86l-6 64h-4q-38 -76 -151 -76q-158 0 -158 159v313zM331 534l-8 -3l-187 69q-13 4 -13 29q0 19 8.5 35.5t21.5 16.5q4 0 10 -3l180 -101l3 -7z" />
<glyph unicode="&#xfa;" d="M65 460h110v-299q0 -40 21 -62t56 -22q36 0 65 24t42 67v292h111v-460h-86l-6 64h-4q-38 -76 -151 -76q-158 0 -158 159v313zM183 532l-8 3l-15 36l3 7l180 101q6 3 10 3q13 0 21.5 -16.5t8.5 -35.5q0 -25 -13 -29z" />
<glyph unicode="&#xfb;" d="M65 460h110v-299q0 -40 21 -62t56 -22q36 0 65 24t42 67v292h111v-460h-86l-6 64h-4q-38 -76 -151 -76q-158 0 -158 159v313zM259 673h8l110 -99l3 -7l-16 -29l-7 -3l-94 41l-94 -41l-7 3l-16 29l3 7z" />
<glyph unicode="&#xfc;" d="M65 460h110v-299q0 -40 21 -62t56 -22q36 0 65 24t42 67v292h111v-460h-86l-6 64h-4q-38 -76 -151 -76q-158 0 -158 159v313zM137 612q0 23 17 41t40 18q22 0 40.5 -18.5t18.5 -40.5q0 -23 -18 -40t-41 -17t-40 17t-17 40zM273 612q0 23 17 41t40 18q22 0 40.5 -18.5 t18.5 -40.5q0 -23 -18 -40t-41 -17t-40 17t-17 40z" />
<glyph unicode="&#xfd;" horiz-adv-x="519" d="M108 460l160 -327l128 327h106l-190 -464q-17 -40 -39.5 -79t-55.5 -80.5t-77 -67t-91 -25.5q-12 0 -21 3l-19 86q12 -3 24 -3q44 0 75 20q62 39 114 165l-229 445h115zM210 532l-8 3l-15 36l3 7l180 101q6 3 10 3q13 0 21.5 -16.5t8.5 -35.5q0 -25 -13 -29z" />
<glyph unicode="&#xfe;" horiz-adv-x="575" d="M325 475q102 0 154.5 -70.5t52.5 -175.5t-53.5 -173t-155.5 -68q-100 0 -145 55v-303h-109v1000h106v-333h4q24 29 66 48.5t80 19.5zM307 391q-31 0 -69 -18.5t-60 -46.5v-195q46 -56 119 -56q62 0 94 42.5t32 109.5t-29.5 115.5t-86.5 48.5z" />
<glyph unicode="&#xff;" horiz-adv-x="519" d="M108 460l160 -327l128 327h106l-190 -464q-17 -40 -39.5 -79t-55.5 -80.5t-77 -67t-91 -25.5q-12 0 -21 3l-19 86q12 -3 24 -3q44 0 75 20q62 39 114 165l-229 445h115zM258 612q0 23 17 41t40 18t41 -18.5t18 -40.5q0 -23 -18 -40t-41 -17t-40 17t-17 40zM122 612 q0 23 17 41t40 18t41 -18.5t18 -40.5q0 -23 -18 -40t-41 -17t-40 17t-17 40z" />
<glyph unicode="&#x152;" horiz-adv-x="845" d="M806 100v-100h-346q-44 -12 -96 -12q-102 0 -175 47t-106.5 121t-33.5 166q0 148 86 245.5t236 97.5q34 0 72 -5h343v-100h-248v-160h181v-100h-181v-200h268zM366 84q32 0 57 9v467q-26 9 -55 9q-102 0 -149 -63t-47 -174q0 -122 50 -185t144 -63z" />
<glyph unicode="&#x153;" horiz-adv-x="844" d="M274 475q122 0 171 -88q59 88 172 88q88 0 136 -44.5t48 -125.5q0 -59 -19 -85h-291q4 -64 39 -104.5t97 -40.5q36 0 77.5 14t71.5 35l18 -82q-86 -54 -184 -54q-113 0 -164 84q-47 -84 -169 -84q-115 0 -175 69.5t-60 174.5q0 104 59.5 173.5t172.5 69.5zM276 71 q56 0 84.5 44t28.5 111q0 69 -30 116t-88 47q-55 0 -83 -43.5t-28 -110.5q0 -69 29.5 -116.5t86.5 -47.5zM614 389q-43 0 -72 -25t-42 -66h191q1 6 1 18q0 34 -22.5 53.5t-55.5 19.5z" />
<glyph unicode="&#x178;" horiz-adv-x="564" d="M160 783q0 23 17 41t40 18t41 -18t18 -41t-18 -40t-41 -17t-40 17t-17 40zM296 783q0 23 17 41t40 18t41 -18t18 -41t-18 -40t-41 -17t-40 17t-17 40zM225 267l-237 393h129l169 -299l162 299h127l-235 -389v-271h-115v267z" />
<glyph unicode="&#x2c6;" horiz-adv-x="234" d="M113 673h8l110 -99l3 -7l-16 -29l-7 -3l-94 41l-94 -41l-7 3l-16 29l3 7z" />
<glyph unicode="&#x2dc;" horiz-adv-x="311" d="M311 648q-7 -39 -28.5 -65.5t-61.5 -26.5q-14 0 -61 7t-72 7q-51 0 -75 -25l-13 23q14 45 33.5 68t64.5 23q19 0 63 -7t62 -7q41 0 76 26z" />
<glyph unicode="&#x2000;" horiz-adv-x="424" />
<glyph unicode="&#x2001;" horiz-adv-x="849" />
<glyph unicode="&#x2002;" horiz-adv-x="424" />
<glyph unicode="&#x2003;" horiz-adv-x="849" />
<glyph unicode="&#x2004;" horiz-adv-x="283" />
<glyph unicode="&#x2005;" horiz-adv-x="212" />
<glyph unicode="&#x2006;" horiz-adv-x="141" />
<glyph unicode="&#x2007;" horiz-adv-x="141" />
<glyph unicode="&#x2008;" horiz-adv-x="106" />
<glyph unicode="&#x2009;" horiz-adv-x="169" />
<glyph unicode="&#x200a;" horiz-adv-x="47" />
<glyph unicode="&#x2010;" horiz-adv-x="468" d="M65 280h338v-82h-338v82z" />
<glyph unicode="&#x2011;" horiz-adv-x="468" d="M65 280h338v-82h-338v82z" />
<glyph unicode="&#x2012;" horiz-adv-x="468" d="M65 280h338v-82h-338v82z" />
<glyph unicode="&#x2013;" horiz-adv-x="544" d="M65 280h414v-82h-414v82z" />
<glyph unicode="&#x2014;" horiz-adv-x="772" d="M65 280h642v-82h-642v82z" />
<glyph unicode="&#x2018;" horiz-adv-x="252" d="M169 735l36 -25l-45 -113h25v-137h-119v152z" />
<glyph unicode="&#x2019;" horiz-adv-x="233" d="M88 460l-36 25l45 113h-25v137h119v-152z" />
<glyph unicode="&#x201a;" horiz-adv-x="261" d="M87 -143l-36 25l45 113h-25v137h119v-152z" />
<glyph unicode="&#x201c;" horiz-adv-x="411" d="M328 735l36 -25l-45 -113h25v-137h-119v152zM169 735l36 -25l-45 -113h25v-137h-119v152z" />
<glyph unicode="&#x201d;" horiz-adv-x="392" d="M88 460l-36 25l45 113h-25v137h119v-152zM247 460l-36 25l45 113h-25v137h119v-152z" />
<glyph unicode="&#x201e;" horiz-adv-x="420" d="M87 -143l-36 25l45 113h-25v137h119v-152zM246 -143l-36 25l45 113h-25v137h119v-152z" />
<glyph unicode="&#x2022;" horiz-adv-x="322" d="M89 243q0 28 21 50.5t50 22.5q28 0 50.5 -22.5t22.5 -50.5q0 -29 -22.5 -50t-50.5 -21q-29 0 -50 21t-21 50z" />
<glyph unicode="&#x2026;" horiz-adv-x="634" d="M435 59q0 28 21 50.5t50 22.5q28 0 50.5 -22.5t22.5 -50.5q0 -29 -22.5 -50t-50.5 -21q-29 0 -50 21t-21 50zM56 59q0 28 21 50.5t50 22.5q28 0 50.5 -22.5t22.5 -50.5q0 -29 -22.5 -50t-50.5 -21q-29 0 -50 21t-21 50zM246 59q0 28 21 50.5t50 22.5q28 0 50.5 -22.5 t22.5 -50.5q0 -29 -22.5 -50t-50.5 -21q-29 0 -50 21t-21 50z" />
<glyph unicode="&#x202f;" horiz-adv-x="169" />
<glyph unicode="&#x2030;" horiz-adv-x="1196" d="M695 691l-463 -715h-90l463 715h90zM194 665q72 0 114.5 -53.5t42.5 -130.5t-43.5 -132t-117.5 -55q-73 0 -113 52.5t-40 130.5q0 81 42.5 134.5t114.5 53.5zM191 359q38 0 56.5 33.5t18.5 86.5q0 55 -19 88t-55 33q-69 0 -69 -117q0 -124 68 -124zM647 366 q72 0 114.5 -53.5t42.5 -130.5t-43.5 -132t-117.5 -55q-73 0 -113 52.5t-40 130.5q0 81 42.5 134.5t114.5 53.5zM644 60q38 0 56.5 33.5t18.5 86.5q0 55 -19 88t-55 33q-69 0 -69 -117q0 -124 68 -124zM1005 366q72 0 114.5 -53.5t42.5 -130.5t-43.5 -132t-117.5 -55 q-73 0 -113 52.5t-40 130.5q0 81 42.5 134.5t114.5 53.5zM1002 60q38 0 56.5 33.5t18.5 86.5q0 55 -19 88t-55 33q-69 0 -69 -117q0 -124 68 -124z" />
<glyph unicode="&#x2039;" horiz-adv-x="337" d="M144 243v-5l145 -177h-113l-133 178v5l134 176h112z" />
<glyph unicode="&#x203a;" horiz-adv-x="337" d="M193 238v5l-145 177h112l134 -176v-5l-133 -178h-113z" />
<glyph unicode="&#x205f;" horiz-adv-x="212" />
<glyph unicode="&#x20ac;" horiz-adv-x="616" d="M42 442h90q25 101 92.5 162t169.5 61q100 0 171 -43l-32 -111q-58 56 -144 56q-110 0 -139 -125h211v-82h-221v-53h221v-82h-212q29 -139 134 -139q103 0 164 64l30 -101q-90 -61 -194 -61q-105 0 -170 65t-86 172h-85v82h76v16q0 25 1 37h-77v82z" />
<glyph unicode="&#x2122;" horiz-adv-x="712" d="M441 369l-59 165v-165h-68v284h90l71 -201l70 201h89v-284h-68v164l-60 -164h-65zM281 653v-64h-74v-220h-68v220h-74v64h216z" />
<glyph unicode="&#x25fc;" horiz-adv-x="460" d="M0 460h460v-460h-460v460z" />
</font>
</defs>
</svg>
